
Genre:Horror | Thriller
Language:English
 
http://www.imdb.com/title/tt1622979/

Source:IMAGINE Thanks!

Format : MPEG-4
Format profile : Base Media
Codec ID : isom
File size : 1.03 GiB
Duration : 1h 26mn
Overall bit rate : 1 711 Kbps

Video
ID : 1
Format : AVC
Format/Info : Advanced Video Codec
Format profile : High@L4.1
Format settings, CABAC : Yes
Format settings, ReFrames : 3 frames
Codec ID : avc1
Codec ID/Info : Advanced Video Coding
Duration : 1h 26mn
Bit rate mode : Variable
Bit rate : 1 500 Kbps
Maximum bit rate : 6 301 Kbps
Width : 720 pixels
Height : 256 pixels
Display aspect ratio : 2.813
Frame rate mode : Constant
Frame rate : 29.970 fps
Color space : YUV
Chroma subsampling : 4:2:0
Bit depth : 8 bits
Scan type : Progressive
Bits/(Pixel*Frame) : 0.272
Stream size : 918 MiB (87%)
Writing library : x264

Audio
ID : 2
Format : AAC
Format/Info : Advanced Audio Codec
Format version : Version 4
Format profile : LC
Format settings, SBR : No
Codec ID : 40
Duration : 1h 26mn
Bit rate mode : Variable
Bit rate : 224 Kbps
Maximum bit rate : 261 Kbps
Channel(s) : 2 channels
Channel positions : Front: L R
Sampling rate : 44.1 KHz
Stream size : 139 MiB (13%)


Plot:
Survivors of a suspension-bridge collapse learn there's no way you can cheat Death.
 
http://www.pix2links.com/images/93805285132877974421.png
 
http://www.pix2links.com/images/47182797499463237356.png
 
http://www.pix2links.com/images/35255643043866253070.png